<?xml version="1.0" ?><svg data-name="Layer 1" id="Layer_1" viewBox="0 0 64 64" xmlns="http://www.w3.org/2000/svg"><title/><desc/><path d="M45.06,57h-26a3,3,0,0,1-3-3V26l3.06,12.73A16,16,0,0,0,34.68,51H48.06v3A3,3,0,0,1,45.06,57Z" style="fill:#cff09e"/><rect height="5" style="fill:#a8dba8" width="18" x="23.06" y="7.02"/><path d="M48.06,31.74,44,29.3a2,2,0,0,0-1.92-.07l-4,2a2,2,0,0,1-1.92-.08l-3-1.81a2,2,0,0,0-2.06,0l-3,1.81a2,2,0,0,1-1.92.08l-4-2a2,2,0,0,0-1.92.07l-4.06,2.44V27l4.06-2.44A2,2,0,0,1,22,24.51l4,2A2,2,0,0,0,28,26.45l3-1.81a2,2,0,0,1,2.06,0l3,1.81a2,2,0,0,0,1.92.08l4-2a2,2,0,0,1,1.92.07L48.06,27Z" style="fill:#a8dba8"/><path d="M19.06,57h26a0,0,0,0,1,0,0v2a2,2,0,0,1-2,2h-22a2,2,0,0,1-2-2V57A0,0,0,0,1,19.06,57Z" style="fill:#cff09e"/><path d="M3.06,53h9a0,0,0,0,1,0,0v2a2,2,0,0,1-2,2h-5a2,2,0,0,1-2-2V53A0,0,0,0,1,3.06,53Z" style="fill:#cff09e"/><path d="M52.06,53h9a0,0,0,0,1,0,0v2a2,2,0,0,1-2,2h-5a2,2,0,0,1-2-2V53A0,0,0,0,1,52.06,53Z" style="fill:#cff09e"/><path d="M42.08,49.51l-4,2a2,2,0,0,1-1.92-.08l-3-1.81a2,2,0,0,0-2.06,0l-3,1.81a2,2,0,0,1-1.92.08l-4-2a2,2,0,0,0-1.92.07L16.06,52v2a3,3,0,0,0,3,3h26a3,3,0,0,0,3-3V52L44,49.58A2,2,0,0,0,42.08,49.51Z" style="fill:#a8dba8"/><path d="M21.06,3a2,2,0,0,0,0,4h22a2,2,0,0,0,2-2h-22A2,2,0,0,1,21.06,3Z" style="fill:#cff09e"/><path d="M3.06,53h9V49l-2.48-.83a6,6,0,0,1-4-4.84L3.06,26Z" style="fill:#cff09e"/><path d="M52.06,53h9V49l-2.48-.83a6,6,0,0,1-4-4.84L52.06,26Z" style="fill:#cff09e"/><path d="M12.06,39.66,9.85,38.19a1,1,0,0,0-1.36.23L6.63,40.9a1,1,0,0,1-1.36.24L3.06,39.66v7.72l2.21,1.47a1,1,0,0,0,1.36-.23l1.86-2.49a1,1,0,0,1,1.36-.23l2.21,1.48Z" style="fill:#a8dba8"/><path d="M52.06,39.66l2.21-1.47a1,1,0,0,1,1.36.23l1.86,2.48a1,1,0,0,0,1.36.24l2.21-1.48v7.72l-2.21,1.47a1,1,0,0,1-1.36-.23l-1.86-2.49a1,1,0,0,0-1.36-.23l-2.21,1.48Z" style="fill:#a8dba8"/><path d="M49.06,11h-7V8h1a3,3,0,1,0,0-6h-22a3,3,0,0,0,0,6h1v3h-7a13,13,0,0,0-13,13V55a3,3,0,0,0,3,3h5a3,3,0,0,0,3-3V26.13a1.09,1.09,0,0,1,.83-1.1,1,1,0,0,1,.82.23,1,1,0,0,1,.35.76V54a4,4,0,0,0,3,3.86V59a3,3,0,0,0,3,3h22a3,3,0,0,0,3-3V57.88a4,4,0,0,0,3-3.86V26.13a1.09,1.09,0,0,1,.83-1.1,1,1,0,0,1,.82.23,1,1,0,0,1,.35.76V55a3,3,0,0,0,3,3h5a3,3,0,0,0,3-3V24A13,13,0,0,0,49.06,11Zm11,35.82L58.29,48l-1.86-2.49a2,2,0,0,0-2.71-.46l-.66.44V40.2L54.83,39l1.86,2.48a2,2,0,0,0,1.61.81A2,2,0,0,0,59.4,42l.66-.44Zm-7,1.07,1.77-1.18,1.86,2.49a2,2,0,0,0,1.61.8,2,2,0,0,0,1.1-.34l.66-.44V52h-7ZM20.06,5a1,1,0,0,1,1-1h22a1,1,0,0,1,0,2h-22A1,1,0,0,1,20.06,5Zm4,3h16v3h-16Zm-9,5h34a11,11,0,0,1,9.61,5.66.34.34,0,0,1-.14-.05l-4-2a3,3,0,0,0-2.88.11l-3,1.81a1,1,0,0,1-1,0l-3-1.81a3,3,0,0,0-2.89-.11l-4,2a1,1,0,0,1-1,0l-3-1.82a3,3,0,0,0-3.08,0l-3,1.82a1,1,0,0,1-1,0l-4-2a3,3,0,0,0-2.88.11l-3,1.81a1,1,0,0,1-1,0l-3-1.81a3,3,0,0,0-2.89-.11l-4,2a.44.44,0,0,1-.15.05A11,11,0,0,1,15.06,13Zm-11,36.22.66.44a2,2,0,0,0,2.71-.46l1.86-2.49,1.77,1.18V52h-7Zm7-3.73-.66-.44a2,2,0,0,0-2.71.46L5.83,48,4.06,46.84V41.53l.66.44a2,2,0,0,0,2.71-.47L9.29,39l1.77,1.18Zm0,9.51a1,1,0,0,1-1,1h-5a1,1,0,0,1-1-1V54h7Zm9.57-29.58a1,1,0,0,1,1,0l4,2a3,3,0,0,0,2.89-.11l3-1.82a1,1,0,0,1,1,0l3,1.82a3,3,0,0,0,2.88.11l4-2a1,1,0,0,1,1,0l3.57,2.14V30l-2.54-1.52a3,3,0,0,0-2.89-.12l-4,2a1,1,0,0,1-1,0l-3-1.82a3,3,0,0,0-3.08,0l-3,1.82a1,1,0,0,1-1,0l-4-2a3,3,0,0,0-2.88.12L17.06,30V27.58ZM17.06,32.3l3.57-2.14a1,1,0,0,1,1,0l4,2A3,3,0,0,0,28.52,32l3-1.82a1,1,0,0,1,1,0l3,1.82a3,3,0,0,0,2.88.11l4-2a1,1,0,0,1,1,0l3.57,2.14v18l-2.54-1.52a3,3,0,0,0-2.89-.11l-4,2a1,1,0,0,1-1,0l-3-1.82a3,3,0,0,0-3.08,0l-3,1.82a1,1,0,0,1-1,0l-4-2a3,3,0,0,0-2.88.11l-2.55,1.52ZM44.06,59a1,1,0,0,1-1,1h-22a1,1,0,0,1-1-1V58h24Zm1-3h-26a2,2,0,0,1-2-2V52.58l3.57-2.14a1,1,0,0,1,1,0l4,2a3,3,0,0,0,2.89-.11l3-1.82a1,1,0,0,1,1,0l3,1.82a3,3,0,0,0,2.88.11l4-2a1,1,0,0,1,1,0l3.57,2.14V54A2,2,0,0,1,45.06,56Zm4.5-33a3,3,0,0,0-2.38,2.26l-2.66-1.59a3,3,0,0,0-2.89-.11l-4,2a1,1,0,0,1-1,0l-3-1.82a3,3,0,0,0-3.08,0l-3,1.82a1,1,0,0,1-1,0l-4-2a3,3,0,0,0-2.88.11L17,25.31A3,3,0,0,0,14.06,23a2.81,2.81,0,0,0-.5,0,3.09,3.09,0,0,0-2.5,3.07V37.79l-.66-.44a2,2,0,0,0-2.71.47L5.83,40.3,4.06,39.13V24a11,11,0,0,1,.53-3.36,2.91,2.91,0,0,0,1.9-.24l4-2a1,1,0,0,1,1,0l3,1.82a3,3,0,0,0,3.08,0l3-1.82a1,1,0,0,1,1,0l4,2a3,3,0,0,0,2.89-.11l3-1.82a1,1,0,0,1,1,0l3,1.82a2.91,2.91,0,0,0,1.54.43,3.07,3.07,0,0,0,1.34-.32l4-2a1,1,0,0,1,1,0l3,1.82a3,3,0,0,0,3.08,0l3-1.82a1,1,0,0,1,1,0l4,2a2.92,2.92,0,0,0,1.9.24A11,11,0,0,1,60.06,24V39.13L58.29,40.3l-1.86-2.48a2,2,0,0,0-2.71-.47l-.66.44V26A3,3,0,0,0,52,23.73,3,3,0,0,0,49.56,23.06Zm10.5,32a1,1,0,0,1-1,1h-5a1,1,0,0,1-1-1V54h7Z" style="fill:#3b8686"/><path d="M20.61,42.91a1.06,1.06,0,0,0,.45.11,1,1,0,0,0,.9-.55L22.68,41h1.38V42.4l-1.45.72a1,1,0,0,0-.44,1.35,1,1,0,0,0,1.34.44l1.55-.77,1.55.77a1.06,1.06,0,0,0,.45.11,1,1,0,0,0,.9-.55,1,1,0,0,0-.45-1.35l-1.45-.72V41h1.38l.73,1.45a1,1,0,0,0,.89.55,1,1,0,0,0,.45-.11A1,1,0,0,0,30,41.57L29.18,40,30,38.47a1,1,0,0,0-.45-1.35,1,1,0,0,0-1.34.45L27.44,39H26.06V37.64l1.45-.73A1,1,0,0,0,28,35.57a1,1,0,0,0-1.35-.45l-1.55.78-1.55-.78a1,1,0,0,0-1.34.45,1,1,0,0,0,.44,1.34l1.45.73V39H22.68L22,37.57a1,1,0,0,0-1.35-.45,1,1,0,0,0-.44,1.35L20.94,40l-.77,1.55A1,1,0,0,0,20.61,42.91Z" style="fill:#3b8686"/><path d="M34.61,42.91a1.06,1.06,0,0,0,.45.11,1,1,0,0,0,.9-.55L36.68,41h1.38V42.4l-1.45.72a1,1,0,0,0-.44,1.35,1,1,0,0,0,1.34.44l1.55-.77,1.55.77a1.06,1.06,0,0,0,.45.11,1,1,0,0,0,.9-.55,1,1,0,0,0-.45-1.35l-1.45-.72V41h1.38l.73,1.45a1,1,0,0,0,.89.55,1,1,0,0,0,.45-.11A1,1,0,0,0,44,41.57L43.18,40,44,38.47a1,1,0,0,0-.45-1.35,1,1,0,0,0-1.34.45L41.44,39H40.06V37.64l1.45-.73A1,1,0,0,0,42,35.57a1,1,0,0,0-1.35-.45l-1.55.78-1.55-.78a1,1,0,0,0-1.34.45,1,1,0,0,0,.44,1.34l1.45.73V39H36.68L36,37.57a1,1,0,0,0-1.35-.45,1,1,0,0,0-.44,1.35L34.94,40l-.77,1.55A1,1,0,0,0,34.61,42.91Z" style="fill:#3b8686"/></svg>