<!DOCTYPE svg PUBLIC "-//W3C//DTD SVG 20010904//EN" "http://www.w3.org/TR/2001/REC-SVG-20010904/DTD/svg10.dtd">
<svg version="1.0" xmlns="http://www.w3.org/2000/svg" width="848px" height="153px" viewBox="0 0 8480 1530" preserveAspectRatio="xMidYMid meet">
<g id="layer101" fill="#aaaaaa" stroke="none">
 <path d="M250 840 l0 -410 840 0 840 0 0 410 0 410 -336 0 -336 0 37 -41 c20 -23 51 -71 69 -108 29 -62 31 -72 31 -181 -1 -136 -19 -195 -87 -277 -109 -131 -284 -147 -407 -37 -149 134 -174 387 -56 562 20 29 43 56 51 59 48 18 -19 23 -316 23 l-330 0 0 -410z m440 255 l0 -25 -130 0 -130 0 0 -65 c0 -63 -1 -65 -25 -65 -25 0 -25 1 -25 90 l0 90 155 0 155 0 0 -25z m1110 -65 c0 -83 -1 -90 -20 -90 -18 0 -20 7 -20 65 l0 65 -130 0 -130 0 0 25 0 25 150 0 150 0 0 -90z m-1370 -355 l0 -65 130 0 c123 0 130 -1 130 -20 0 -19 -7 -20 -155 -20 l-155 0 0 85 c0 84 0 85 25 85 24 0 25 -2 25 -65z m1370 -20 l0 -85 -150 0 c-143 0 -150 1 -150 20 0 19 7 20 130 20 l130 0 0 65 c0 58 2 65 20 65 18 0 20 -7 20 -85z"/>
 <path d="M1040 1156 c0 -32 -3 -35 -38 -41 -59 -10 -65 -17 -57 -65 6 -37 10 -41 29 -35 93 29 150 22 144 -18 -2 -16 -21 -31 -72 -57 -75 -38 -106 -74 -106 -125 0 -43 35 -94 75 -111 29 -12 35 -19 35 -44 0 -28 3 -30 35 -30 32 0 35 3 35 29 0 25 5 29 43 37 40 9 42 11 39 44 -4 48 -12 53 -66 38 -53 -14 -81 -4 -81 28 0 14 20 29 70 54 99 49 126 107 88 188 -11 24 -29 40 -55 51 -34 14 -38 20 -38 54 0 37 0 37 -40 37 -39 0 -40 -1 -40 -34z"/>
 <path d="M6821 1150 c-207 -43 -290 -290 -156 -466 14 -18 53 -46 86 -63 145 -72 315 -18 384 123 33 68 36 172 7 239 -55 124 -189 194 -321 167z m124 -119 c81 -36 126 -123 105 -201 -49 -183 -320 -167 -338 20 -8 89 34 157 114 185 52 19 71 18 119 -4z"/>
 <path d="M2895 1137 c-112 -43 -185 -149 -185 -267 0 -98 66 -206 154 -253 56 -30 203 -32 256 -3 41 21 100 75 100 90 -1 6 -19 24 -41 39 l-40 28 -35 -30 c-18 -17 -51 -35 -72 -40 -99 -27 -212 64 -212 170 0 19 10 55 23 79 53 106 182 130 267 50 l32 -30 39 31 c21 17 39 34 39 39 0 17 -91 87 -128 98 -49 15 -157 14 -197 -1z"/>
 <path d="M3455 1126 c-105 -49 -160 -137 -159 -256 0 -61 5 -84 26 -126 50 -97 127 -145 238 -152 69 -4 80 -1 133 26 l57 31 0 -25 c0 -23 3 -24 55 -24 l55 0 0 270 0 270 -55 0 c-51 0 -55 -2 -55 -23 l0 -24 -56 29 c-75 37 -165 39 -239 4z m182 -91 c48 -20 71 -41 94 -87 25 -48 24 -101 -2 -155 -35 -73 -117 -112 -192 -92 -49 13 -113 71 -128 116 -26 79 16 173 93 212 51 25 85 26 135 6z"/>
 <path d="M4080 1136 c-47 -13 -91 -35 -125 -61 -19 -15 -18 -16 16 -50 l35 -36 54 31 c36 19 69 30 96 30 54 0 94 -30 94 -70 0 -37 -26 -51 -135 -75 -67 -15 -86 -23 -117 -54 -48 -49 -58 -97 -32 -160 23 -55 76 -89 152 -98 59 -7 145 16 184 49 l27 23 -30 34 -31 34 -43 -22 c-59 -29 -119 -28 -150 4 -14 13 -25 29 -25 35 0 25 44 49 130 70 76 19 99 29 130 59 49 47 60 101 32 164 -39 89 -143 126 -262 93z"/>
 <path d="M5601 1137 c-54 -21 -107 -73 -138 -134 -24 -49 -28 -70 -27 -133 1 -46 7 -89 18 -113 23 -53 84 -117 131 -138 54 -25 157 -25 210 0 83 37 155 152 155 248 l0 33 -206 0 -206 0 7 28 c9 37 50 89 85 107 42 22 79 19 139 -12 l54 -26 43 24 44 23 -28 29 c-44 47 -99 70 -177 73 -41 2 -84 -2 -104 -9z m229 -336 c0 -16 -51 -71 -81 -86 -36 -19 -82 -19 -118 0 -30 15 -81 70 -81 86 0 5 61 9 140 9 79 0 140 -4 140 -9z"/>
 <path d="M6175 1126 c-181 -85 -215 -340 -63 -470 116 -99 324 -82 405 34 12 16 9 21 -28 49 l-41 30 -37 -30 c-49 -38 -93 -51 -144 -39 -73 16 -129 76 -142 151 -14 82 62 182 149 196 44 7 114 -18 146 -52 l23 -24 43 31 c49 35 48 49 -9 92 -54 41 -101 56 -179 56 -56 0 -85 -6 -123 -24z"/>
 <path d="M7784 1131 c-98 -45 -156 -131 -162 -244 -7 -120 45 -214 149 -266 86 -43 162 -43 245 -1 32 16 60 30 62 30 1 0 2 -83 2 -185 l0 -185 55 0 55 0 0 430 0 430 -55 0 c-52 0 -55 -1 -55 -24 l0 -25 -56 30 c-47 24 -67 29 -128 29 -47 0 -84 -7 -112 -19z m211 -112 c34 -23 85 -106 85 -138 0 -63 -47 -139 -103 -168 -39 -20 -115 -20 -155 1 -94 48 -122 187 -55 267 59 70 157 86 228 38z"/>
 <path d="M4440 710 l0 -430 55 0 55 0 0 181 c0 99 3 179 8 177 85 -44 108 -50 167 -46 73 6 130 34 175 84 58 66 64 91 68 287 l4 177 -56 0 -56 0 0 -155 c0 -172 -7 -200 -59 -249 -44 -42 -126 -49 -176 -15 -64 43 -75 83 -75 262 l0 157 -55 0 -55 0 0 -430z"/>
 <path d="M5090 870 l0 -270 55 0 c48 0 55 3 55 19 0 20 1 20 45 0 25 -11 68 -23 96 -26 l52 -6 -7 28 c-4 15 -10 40 -13 56 -4 23 -11 29 -30 29 -33 0 -93 35 -118 68 -18 24 -20 46 -23 200 l-3 172 -55 0 -54 0 0 -270z"/>
 <path d="M7270 870 l0 -270 55 0 c51 0 55 2 55 23 l0 24 48 -24 c26 -13 71 -26 99 -30 l51 -6 -11 54 c-12 51 -14 54 -51 61 -53 11 -95 44 -117 92 -15 34 -19 66 -19 194 l0 152 -55 0 -55 0 0 -270z"/>
 <path d="M1990 740 l0 -370 -775 0 -775 0 0 -30 0 -30 810 0 810 0 0 400 0 400 -35 0 -35 0 0 -370z"/>
 <path d="M2110 615 l0 -355 -755 0 -755 0 0 -35 0 -35 785 0 785 0 0 390 0 390 -30 0 -30 0 0 -355z"/>
 </g>

</svg>